<?xml version="1.0" encoding="UTF-8"?>
<svg xmlns="http://www.w3.org/2000/svg" xmlns:xlink="http://www.w3.org/1999/xlink" width="1268pt" height="1072pt" viewBox="0 0 1268 1072" version="1.1">
<g id="surface1">
<path style=" stroke:none;fill-rule:nonzero;fill:rgb(95.294118%,63.921571%,63.137257%);fill-opacity:1;" d="M 510.242188 1268.007812 C 509.300781 1266.933594 360.898438 1009.546875 360.898438 1008.992188 C 360.898438 1008.433594 361.265625 1008.417969 373.84375 1008.496094 L 386.785156 1008.574219 L 448.617188 1115.648438 C 482.625 1174.542969 510.585938 1222.734375 510.75 1222.75 C 510.914062 1222.761719 538.875 1174.578125 572.882812 1115.671875 L 634.714844 1008.574219 L 647.65625 1008.496094 C 660.234375 1008.417969 660.601562 1008.433594 660.601562 1008.992188 C 660.601562 1009.597656 512.105469 1267.085938 511.222656 1268.007812 C 510.734375 1268.523438 510.695312 1268.523438 510.242188 1268.007812 Z M 0.378906 978.476562 C 0.0820312 978.289062 0.0820312 978.03125 0.378906 977.214844 C 0.824219 975.972656 509.480469 94.800781 510.113281 94.167969 C 510.667969 93.613281 510.832031 93.613281 511.386719 94.167969 C 512.019531 94.800781 1020.675781 975.972656 1021.121094 977.214844 C 1021.417969 978.03125 1021.417969 978.289062 1021.121094 978.476562 C 1020.636719 978.785156 0.863281 978.785156 0.378906 978.476562 Z M 78.148438 519.867188 C 36.570312 447.847656 1.976562 387.816406 1.277344 386.464844 C 0.328125 384.632812 0.0976562 383.945312 0.375 383.769531 C 0.582031 383.640625 69.90625 383.53125 154.433594 383.527344 C 290.085938 383.523438 308.140625 383.574219 308.289062 383.96875 C 308.390625 384.230469 305.855469 388.933594 302.1875 395.292969 L 295.914062 406.171875 L 167.78125 406.324219 C 97.308594 406.40625 39.582031 406.539062 39.503906 406.621094 C 39.421875 406.707031 68.160156 456.65625 103.367188 517.621094 C 138.574219 578.589844 167.3125 628.667969 167.226562 628.902344 C 167.144531 629.140625 164.28125 634.167969 160.867188 640.078125 C 156.96875 646.828125 154.492188 650.820312 154.203125 650.816406 C 153.917969 650.8125 125.890625 602.554688 78.148438 519.867188 Z M 860.632812 640.078125 C 857.21875 634.167969 854.355469 629.140625 854.273438 628.902344 C 854.1875 628.667969 882.925781 578.589844 918.132812 517.621094 C 953.335938 456.65625 982.078125 406.707031 981.996094 406.621094 C 981.914062 406.539062 924.191406 406.40625 853.71875 406.324219 L 725.585938 406.171875 L 719.3125 395.292969 C 715.644531 388.933594 713.109375 384.230469 713.210938 383.96875 C 713.359375 383.574219 731.414062 383.523438 867.066406 383.527344 C 951.59375 383.53125 1020.917969 383.640625 1021.125 383.769531 C 1021.402344 383.945312 1021.171875 384.632812 1020.222656 386.464844 C 1019.523438 387.816406 984.929688 447.847656 943.351562 519.867188 C 895.59375 602.582031 867.582031 650.8125 867.296875 650.816406 C 867.007812 650.820312 864.53125 646.824219 860.632812 640.078125 Z M 860.632812 640.078125 "/>
<path style=" stroke:none;fill-rule:nonzero;fill:rgb(63.137257%,65.490198%,69.803923%);fill-opacity:1;" d="M 435.949219 1138.84375 C 391.800781 1062.355469 361.257812 1009.144531 361.417969 1008.984375 C 361.570312 1008.832031 367.058594 1008.75 374.113281 1008.792969 L 386.535156 1008.871094 L 448.492188 1116.195312 C 482.570312 1175.226562 510.585938 1223.519531 510.75 1223.519531 C 510.914062 1223.519531 538.929688 1175.226562 573.007812 1116.195312 L 634.964844 1008.871094 L 647.386719 1008.792969 C 654.4375 1008.75 659.929688 1008.832031 660.082031 1008.984375 C 660.242188 1009.144531 629.808594 1062.167969 585.824219 1138.363281 C 544.835938 1209.375 511.175781 1267.6875 511.023438 1267.953125 C 510.816406 1268.320312 492.882812 1237.480469 435.949219 1138.84375 Z M 0.378906 978.476562 C 0.0820312 978.289062 0.0820312 978.03125 0.378906 977.214844 C 0.824219 975.972656 509.480469 94.800781 510.113281 94.167969 C 510.667969 93.613281 510.832031 93.613281 511.386719 94.167969 C 512.019531 94.800781 1020.675781 975.972656 1021.121094 977.214844 C 1021.417969 978.03125 1021.417969 978.289062 1021.121094 978.476562 C 1020.636719 978.785156 0.863281 978.785156 0.378906 978.476562 Z M 153.851562 650.003906 C 153.605469 649.710938 119.46875 590.679688 77.996094 518.824219 C 36.527344 446.964844 2.019531 387.195312 1.3125 385.996094 L 0.03125 383.824219 L 153.898438 383.824219 C 253.148438 383.824219 307.828125 383.925781 307.945312 384.113281 C 308.113281 384.386719 296.820312 404.355469 295.851562 405.496094 C 295.429688 405.996094 288.9375 406.023438 167.34375 406.023438 C 60.097656 406.023438 39.257812 406.089844 39.125 406.429688 C 39.039062 406.652344 67.6875 456.566406 102.785156 517.351562 C 137.882812 578.140625 166.65625 628.15625 166.726562 628.5 C 166.808594 628.925781 164.863281 632.578125 160.800781 639.601562 C 157.472656 645.359375 154.652344 650.175781 154.527344 650.304688 C 154.40625 650.433594 154.101562 650.296875 153.851562 650.003906 Z M 865.871094 648.53125 C 856.734375 632.820312 854.660156 629.070312 854.773438 628.503906 C 854.84375 628.15625 883.617188 578.140625 918.714844 517.351562 C 953.8125 456.566406 982.460938 406.652344 982.375 406.429688 C 982.242188 406.089844 961.445312 406.023438 854.15625 406.023438 C 732.5625 406.023438 726.070312 405.996094 725.648438 405.496094 C 724.679688 404.355469 713.386719 384.386719 713.554688 384.113281 C 713.671875 383.925781 768.351562 383.824219 867.601562 383.824219 L 1021.472656 383.824219 L 1020.1875 385.996094 C 1019.480469 387.195312 984.976562 446.964844 943.507812 518.824219 C 902.039062 590.679688 867.875 649.722656 867.585938 650.03125 C 867.085938 650.570312 867.023438 650.515625 865.871094 648.53125 Z M 865.871094 648.53125 "/>
<path style=" stroke:none;fill-rule:nonzero;fill:rgb(91.764706%,38.039216%,36.470589%);fill-opacity:1;" d="M 435.949219 1138.84375 C 391.800781 1062.355469 361.257812 1009.144531 361.417969 1008.984375 C 361.570312 1008.832031 367.058594 1008.75 374.113281 1008.792969 L 386.535156 1008.871094 L 448.492188 1116.195312 C 482.570312 1175.226562 510.585938 1223.519531 510.75 1223.519531 C 510.914062 1223.519531 538.929688 1175.226562 573.007812 1116.195312 L 634.964844 1008.871094 L 647.386719 1008.792969 C 654.4375 1008.75 659.929688 1008.832031 660.082031 1008.984375 C 660.242188 1009.144531 629.808594 1062.167969 585.824219 1138.363281 C 544.835938 1209.375 511.175781 1267.6875 511.023438 1267.953125 C 510.816406 1268.320312 492.882812 1237.480469 435.949219 1138.84375 Z M 0.0664062 978.070312 C 0.410156 977.039062 510.496094 93.75 510.75 93.75 C 511.003906 93.75 1021.089844 977.039062 1021.433594 978.070312 C 1021.523438 978.339844 901.410156 978.421875 510.75 978.421875 C 120.089844 978.421875 -0.0234375 978.339844 0.0664062 978.070312 Z M 153.851562 650.003906 C 153.605469 649.710938 119.46875 590.679688 77.996094 518.824219 C 36.527344 446.964844 2.019531 387.195312 1.3125 385.996094 L 0.03125 383.824219 L 153.898438 383.824219 C 253.148438 383.824219 307.828125 383.925781 307.945312 384.113281 C 308.113281 384.386719 296.820312 404.355469 295.851562 405.496094 C 295.429688 405.996094 288.9375 406.023438 167.34375 406.023438 C 60.097656 406.023438 39.257812 406.089844 39.125 406.429688 C 39.039062 406.652344 67.6875 456.566406 102.785156 517.351562 C 137.882812 578.140625 166.65625 628.15625 166.726562 628.5 C 166.808594 628.925781 164.863281 632.578125 160.800781 639.601562 C 157.472656 645.359375 154.652344 650.175781 154.527344 650.304688 C 154.40625 650.433594 154.101562 650.296875 153.851562 650.003906 Z M 865.871094 648.53125 C 856.734375 632.820312 854.660156 629.070312 854.773438 628.503906 C 854.84375 628.15625 883.617188 578.140625 918.714844 517.351562 C 953.8125 456.566406 982.460938 406.652344 982.375 406.429688 C 982.242188 406.089844 961.445312 406.023438 854.15625 406.023438 C 732.5625 406.023438 726.070312 405.996094 725.648438 405.496094 C 724.679688 404.355469 713.386719 384.386719 713.554688 384.113281 C 713.671875 383.925781 768.351562 383.824219 867.601562 383.824219 L 1021.472656 383.824219 L 1020.1875 385.996094 C 1019.480469 387.195312 984.976562 446.964844 943.507812 518.824219 C 902.039062 590.679688 867.875 649.722656 867.585938 650.03125 C 867.085938 650.570312 867.023438 650.515625 865.871094 648.53125 Z M 865.871094 648.53125 "/>
<path style=" stroke:none;fill-rule:nonzero;fill:rgb(47.843137%,50.980395%,57.647061%);fill-opacity:1;" d="M 436.125 1138.507812 C 395.246094 1067.671875 361.800781 1009.558594 361.800781 1009.367188 C 361.800781 1009.113281 364.988281 1009.023438 373.964844 1009.023438 L 386.125 1009.023438 L 387.1875 1010.746094 C 387.773438 1011.695312 415.679688 1059.992188 449.203125 1118.074219 C 497.90625 1202.445312 510.277344 1223.671875 510.75 1223.671875 C 511.222656 1223.671875 523.59375 1202.445312 572.296875 1118.074219 C 605.820312 1059.992188 633.726562 1011.695312 634.3125 1010.746094 L 635.375 1009.023438 L 647.535156 1009.023438 C 656.511719 1009.023438 659.699219 1009.113281 659.699219 1009.367188 C 659.699219 1009.933594 511.078125 1267.300781 510.75 1267.300781 C 510.585938 1267.300781 477.003906 1209.34375 436.125 1138.507812 Z M 0.0664062 978.070312 C 0.410156 977.039062 510.496094 93.75 510.75 93.75 C 511.003906 93.75 1021.089844 977.039062 1021.433594 978.070312 C 1021.523438 978.339844 901.410156 978.421875 510.75 978.421875 C 120.089844 978.421875 -0.0234375 978.339844 0.0664062 978.070312 Z M 77.640625 517.535156 C 35.617188 444.730469 1.144531 384.929688 1.035156 384.644531 C 0.847656 384.148438 8.804688 384.121094 154.167969 384.121094 C 259.183594 384.121094 307.5 384.21875 307.5 384.433594 C 307.5 384.601562 304.777344 389.460938 301.453125 395.230469 L 295.40625 405.722656 L 167.085938 405.722656 C 56.371094 405.722656 38.742188 405.78125 38.601562 406.148438 C 38.507812 406.390625 66.390625 454.996094 102.46875 517.488281 C 137.6875 578.492188 166.5 628.535156 166.5 628.695312 C 166.5 629.097656 154.457031 649.925781 154.230469 649.917969 C 154.132812 649.914062 119.667969 590.34375 77.640625 517.535156 Z M 861.046875 639.457031 C 857.71875 633.699219 855 628.859375 855 628.695312 C 855 628.535156 883.8125 578.492188 919.03125 517.488281 C 955.070312 455.0625 982.992188 406.390625 982.898438 406.148438 C 982.757812 405.78125 965.082031 405.722656 854.414062 405.722656 L 726.097656 405.722656 L 720.046875 395.230469 C 716.722656 389.460938 714 384.601562 714 384.433594 C 714 384.21875 762.316406 384.121094 867.332031 384.121094 C 1012.277344 384.121094 1020.652344 384.152344 1020.464844 384.640625 C 1020.109375 385.574219 867.453125 649.910156 867.269531 649.917969 C 867.171875 649.921875 864.371094 645.214844 861.046875 639.457031 Z M 861.046875 639.457031 "/>
<path style=" stroke:none;fill-rule:nonzero;fill:rgb(40.784314%,44.705883%,51.764709%);fill-opacity:1;" d="M 436.125 1138.507812 C 395.246094 1067.671875 361.800781 1009.558594 361.800781 1009.367188 C 361.800781 1009.113281 364.988281 1009.023438 373.964844 1009.023438 L 386.125 1009.023438 L 387.1875 1010.746094 C 387.773438 1011.695312 415.679688 1059.992188 449.203125 1118.074219 C 497.90625 1202.445312 510.277344 1223.671875 510.75 1223.671875 C 511.222656 1223.671875 523.59375 1202.445312 572.296875 1118.074219 C 605.820312 1059.992188 633.726562 1011.695312 634.3125 1010.746094 L 635.375 1009.023438 L 647.535156 1009.023438 C 656.511719 1009.023438 659.699219 1009.113281 659.699219 1009.367188 C 659.699219 1009.933594 511.078125 1267.300781 510.75 1267.300781 C 510.585938 1267.300781 477.003906 1209.34375 436.125 1138.507812 Z M 0 978.261719 C 0 978.175781 0.859375 976.65625 1.914062 974.886719 C 7.019531 966.304688 510.300781 94.296875 510.300781 94.03125 C 510.300781 93.863281 510.503906 93.722656 510.75 93.722656 C 510.996094 93.722656 511.199219 93.863281 511.199219 94.03125 C 511.199219 94.296875 1014.480469 966.304688 1019.585938 974.886719 C 1020.640625 976.65625 1021.5 978.171875 1021.5 978.261719 C 1021.5 978.351562 791.664062 978.421875 510.75 978.421875 C 229.835938 978.421875 0 978.351562 0 978.261719 Z M 77.640625 517.535156 C 35.617188 444.730469 1.144531 384.929688 1.035156 384.644531 C 0.847656 384.148438 8.804688 384.121094 154.167969 384.121094 C 259.183594 384.121094 307.5 384.21875 307.5 384.433594 C 307.5 384.601562 304.777344 389.460938 301.453125 395.230469 L 295.40625 405.722656 L 167.085938 405.722656 C 56.371094 405.722656 38.742188 405.78125 38.601562 406.148438 C 38.507812 406.390625 66.390625 454.996094 102.46875 517.488281 C 137.6875 578.492188 166.5 628.535156 166.5 628.695312 C 166.5 629.097656 154.457031 649.925781 154.230469 649.917969 C 154.132812 649.914062 119.667969 590.34375 77.640625 517.535156 Z M 861.046875 639.457031 C 857.71875 633.699219 855 628.859375 855 628.695312 C 855 628.535156 883.8125 578.492188 919.03125 517.488281 C 955.070312 455.0625 982.992188 406.390625 982.898438 406.148438 C 982.757812 405.78125 965.082031 405.722656 854.414062 405.722656 L 726.097656 405.722656 L 720.046875 395.230469 C 716.722656 389.460938 714 384.601562 714 384.433594 C 714 384.21875 762.316406 384.121094 867.332031 384.121094 C 1012.277344 384.121094 1020.652344 384.152344 1020.464844 384.640625 C 1020.109375 385.574219 867.453125 649.910156 867.269531 649.917969 C 867.171875 649.921875 864.371094 645.214844 861.046875 639.457031 Z M 861.046875 639.457031 "/>
<path style=" stroke:none;fill-rule:nonzero;fill:rgb(89.019608%,13.725491%,11.764706%);fill-opacity:1;" d="M 436.125 1138.507812 C 395.246094 1067.671875 361.800781 1009.558594 361.800781 1009.367188 C 361.800781 1009.113281 364.988281 1009.023438 373.964844 1009.023438 L 386.125 1009.023438 L 387.1875 1010.746094 C 387.773438 1011.695312 415.679688 1059.992188 449.203125 1118.074219 C 497.90625 1202.445312 510.277344 1223.671875 510.75 1223.671875 C 511.222656 1223.671875 523.59375 1202.445312 572.296875 1118.074219 C 605.820312 1059.992188 633.726562 1011.695312 634.3125 1010.746094 L 635.375 1009.023438 L 647.535156 1009.023438 C 656.511719 1009.023438 659.699219 1009.113281 659.699219 1009.367188 C 659.699219 1009.933594 511.078125 1267.300781 510.75 1267.300781 C 510.585938 1267.300781 477.003906 1209.34375 436.125 1138.507812 Z M 0.148438 977.875 C 0.230469 977.652344 0.300781 977.410156 0.300781 977.332031 C 0.300781 977.253906 0.402344 977.25 0.527344 977.328125 C 0.839844 977.519531 510.472656 94.691406 510.363281 94.152344 C 510.3125 93.914062 510.488281 93.722656 510.75 93.722656 C 511.011719 93.722656 511.1875 93.914062 511.136719 94.152344 C 511.035156 94.652344 1020.652344 977.527344 1020.941406 977.347656 C 1021.089844 977.253906 1021.5 977.894531 1021.5 978.222656 C 1021.5 978.25 791.660156 978.273438 510.746094 978.273438 C 85.539062 978.273438 0.0195312 978.207031 0.148438 977.875 Z M 77.640625 517.535156 C 35.617188 444.730469 1.144531 384.929688 1.035156 384.644531 C 0.847656 384.148438 8.804688 384.121094 154.167969 384.121094 C 259.183594 384.121094 307.5 384.21875 307.5 384.433594 C 307.5 384.601562 304.777344 389.460938 301.453125 395.230469 L 295.40625 405.722656 L 167.085938 405.722656 C 56.371094 405.722656 38.742188 405.78125 38.601562 406.148438 C 38.507812 406.390625 66.390625 454.996094 102.46875 517.488281 C 137.6875 578.492188 166.5 628.535156 166.5 628.695312 C 166.5 629.097656 154.457031 649.925781 154.230469 649.917969 C 154.132812 649.914062 119.667969 590.34375 77.640625 517.535156 Z M 861.046875 639.457031 C 857.71875 633.699219 855 628.859375 855 628.695312 C 855 628.535156 883.8125 578.492188 919.03125 517.488281 C 955.070312 455.0625 982.992188 406.390625 982.898438 406.148438 C 982.757812 405.78125 965.082031 405.722656 854.414062 405.722656 L 726.097656 405.722656 L 720.046875 395.230469 C 716.722656 389.460938 714 384.601562 714 384.433594 C 714 384.21875 762.316406 384.121094 867.332031 384.121094 C 1012.277344 384.121094 1020.652344 384.152344 1020.464844 384.640625 C 1020.109375 385.574219 867.453125 649.910156 867.269531 649.917969 C 867.171875 649.921875 864.371094 645.214844 861.046875 639.457031 Z M 861.046875 639.457031 "/>
<path style=" stroke:none;fill-rule:nonzero;fill:rgb(9.411765%,14.901961%,26.274511%);fill-opacity:1;" d="M 0.148438 977.875 C 0.230469 977.652344 0.300781 977.410156 0.300781 977.332031 C 0.300781 977.253906 0.402344 977.25 0.527344 977.328125 C 0.839844 977.519531 510.472656 94.691406 510.363281 94.152344 C 510.3125 93.914062 510.488281 93.722656 510.75 93.722656 C 511.011719 93.722656 511.1875 93.914062 511.136719 94.152344 C 511.035156 94.652344 1020.652344 977.527344 1020.941406 977.347656 C 1021.089844 977.253906 1021.5 977.894531 1021.5 978.222656 C 1021.5 978.25 791.660156 978.273438 510.746094 978.273438 C 85.539062 978.273438 0.0195312 978.207031 0.148438 977.875 Z M 0.148438 977.875 "/>
</g>
</svg>
