<?xml version="1.0" encoding="UTF-8"?>
<svg xmlns="http://www.w3.org/2000/svg" xmlns:xlink="http://www.w3.org/1999/xlink" width="1183pt" height="1026pt" viewBox="0 0 1183 1026" version="1.1">
<g id="surface1">
<path style=" stroke:none;fill-rule:nonzero;fill:rgb(95.294118%,63.921571%,63.137257%);fill-opacity:1;" d="M 510.242188 1174.285156 C 509.300781 1173.210938 360.898438 915.824219 360.898438 915.269531 C 360.898438 914.710938 361.265625 914.695312 373.84375 914.773438 L 386.785156 914.851562 L 448.617188 1021.925781 C 482.625 1080.816406 510.585938 1129.011719 510.75 1129.027344 C 510.914062 1129.039062 538.875 1080.855469 572.882812 1021.949219 L 634.714844 914.851562 L 647.65625 914.773438 C 660.234375 914.695312 660.601562 914.710938 660.601562 915.269531 C 660.601562 915.875 512.105469 1173.363281 511.222656 1174.285156 C 510.734375 1174.800781 510.691406 1174.800781 510.242188 1174.285156 Z M 0.378906 884.753906 C 0.0820312 884.566406 0.0820312 884.308594 0.378906 883.488281 C 0.824219 882.25 509.480469 1.078125 510.113281 0.445312 C 510.667969 -0.109375 510.832031 -0.109375 511.386719 0.445312 C 512.019531 1.078125 1020.675781 882.25 1021.121094 883.488281 C 1021.417969 884.308594 1021.417969 884.566406 1021.121094 884.753906 C 1020.636719 885.0625 0.863281 885.0625 0.378906 884.753906 Z M 78.148438 426.144531 C 36.570312 354.125 1.976562 294.09375 1.277344 292.742188 C 0.328125 290.910156 0.0976562 290.222656 0.375 290.046875 C 0.582031 289.917969 69.90625 289.808594 154.433594 289.804688 C 290.085938 289.800781 308.140625 289.851562 308.289062 290.246094 C 308.390625 290.507812 305.855469 295.210938 302.1875 301.570312 L 295.914062 312.449219 L 167.78125 312.601562 C 97.308594 312.683594 39.582031 312.816406 39.503906 312.898438 C 39.421875 312.984375 68.160156 362.933594 103.367188 423.898438 C 138.574219 484.867188 167.3125 534.945312 167.226562 535.179688 C 167.144531 535.417969 164.28125 540.445312 160.867188 546.355469 C 156.96875 553.105469 154.492188 557.097656 154.203125 557.09375 C 153.917969 557.089844 125.890625 508.832031 78.148438 426.144531 Z M 860.632812 546.355469 C 857.21875 540.445312 854.355469 535.417969 854.273438 535.179688 C 854.1875 534.945312 882.925781 484.867188 918.132812 423.898438 C 953.335938 362.933594 982.078125 312.984375 981.996094 312.898438 C 981.914062 312.816406 924.191406 312.683594 853.71875 312.601562 L 725.585938 312.449219 L 719.3125 301.570312 C 715.644531 295.210938 713.109375 290.507812 713.210938 290.246094 C 713.359375 289.851562 731.414062 289.800781 867.066406 289.804688 C 951.59375 289.808594 1020.917969 289.917969 1021.125 290.046875 C 1021.402344 290.222656 1021.171875 290.910156 1020.222656 292.742188 C 1019.523438 294.09375 984.929688 354.125 943.351562 426.140625 C 895.59375 508.859375 867.582031 557.089844 867.296875 557.09375 C 867.007812 557.097656 864.53125 553.101562 860.632812 546.355469 Z M 860.632812 546.355469 "/>
<path style=" stroke:none;fill-rule:nonzero;fill:rgb(63.137257%,65.490198%,69.803923%);fill-opacity:1;" d="M 435.949219 1045.121094 C 391.800781 968.632812 361.257812 915.421875 361.417969 915.261719 C 361.570312 915.109375 367.058594 915.027344 374.109375 915.070312 L 386.535156 915.148438 L 448.492188 1022.472656 C 482.570312 1081.5 510.585938 1129.796875 510.75 1129.796875 C 510.914062 1129.796875 538.929688 1081.503906 573.007812 1022.472656 L 634.964844 915.148438 L 647.386719 915.070312 C 654.4375 915.027344 659.929688 915.109375 660.082031 915.261719 C 660.242188 915.421875 629.804688 968.445312 585.824219 1044.640625 C 544.835938 1115.652344 511.175781 1173.964844 511.023438 1174.230469 C 510.816406 1174.597656 492.882812 1143.757812 435.949219 1045.121094 Z M 0.378906 884.753906 C 0.0820312 884.566406 0.0820312 884.308594 0.378906 883.488281 C 0.824219 882.25 509.480469 1.078125 510.113281 0.445312 C 510.667969 -0.109375 510.832031 -0.109375 511.386719 0.445312 C 512.019531 1.078125 1020.675781 882.25 1021.121094 883.488281 C 1021.417969 884.308594 1021.417969 884.566406 1021.121094 884.753906 C 1020.636719 885.0625 0.863281 885.0625 0.378906 884.753906 Z M 153.851562 556.28125 C 153.605469 555.988281 119.46875 496.957031 77.996094 425.101562 C 36.527344 353.242188 2.015625 293.472656 1.3125 292.273438 L 0.0273438 290.101562 L 153.898438 290.101562 C 253.148438 290.101562 307.828125 290.203125 307.945312 290.390625 C 308.113281 290.664062 296.820312 310.632812 295.851562 311.773438 C 295.429688 312.273438 288.9375 312.300781 167.34375 312.300781 C 60.097656 312.300781 39.257812 312.367188 39.125 312.707031 C 39.039062 312.929688 67.6875 362.84375 102.785156 423.628906 C 137.882812 484.417969 166.65625 534.433594 166.726562 534.777344 C 166.808594 535.199219 164.863281 538.855469 160.800781 545.878906 C 157.472656 551.636719 154.652344 556.453125 154.527344 556.582031 C 154.40625 556.710938 154.101562 556.574219 153.851562 556.28125 Z M 865.867188 554.808594 C 856.734375 539.097656 854.660156 535.347656 854.773438 534.78125 C 854.84375 534.433594 883.617188 484.417969 918.714844 423.628906 C 953.8125 362.84375 982.460938 312.929688 982.375 312.707031 C 982.242188 312.367188 961.445312 312.300781 854.15625 312.300781 C 732.5625 312.300781 726.070312 312.273438 725.648438 311.773438 C 724.679688 310.632812 713.386719 290.664062 713.554688 290.390625 C 713.671875 290.203125 768.351562 290.101562 867.601562 290.101562 L 1021.46875 290.101562 L 1020.1875 292.273438 C 1019.480469 293.472656 984.976562 353.242188 943.507812 425.101562 C 902.039062 496.957031 867.875 556 867.585938 556.308594 C 867.085938 556.847656 867.023438 556.792969 865.867188 554.808594 Z M 865.867188 554.808594 "/>
<path style=" stroke:none;fill-rule:nonzero;fill:rgb(91.764706%,38.039216%,36.470589%);fill-opacity:1;" d="M 435.949219 1045.121094 C 391.800781 968.632812 361.257812 915.421875 361.417969 915.261719 C 361.570312 915.109375 367.058594 915.027344 374.109375 915.070312 L 386.535156 915.148438 L 448.492188 1022.472656 C 482.570312 1081.5 510.585938 1129.796875 510.75 1129.796875 C 510.914062 1129.796875 538.929688 1081.503906 573.007812 1022.472656 L 634.964844 915.148438 L 647.386719 915.070312 C 654.4375 915.027344 659.929688 915.109375 660.082031 915.261719 C 660.242188 915.421875 629.804688 968.445312 585.824219 1044.640625 C 544.835938 1115.652344 511.175781 1173.964844 511.023438 1174.230469 C 510.816406 1174.597656 492.882812 1143.757812 435.949219 1045.121094 Z M 0.0664062 884.347656 C 0.410156 883.3125 510.496094 0.0273438 510.75 0.0273438 C 511.003906 0.0273438 1021.089844 883.3125 1021.433594 884.347656 C 1021.523438 884.617188 901.410156 884.699219 510.75 884.699219 C 120.089844 884.699219 -0.0234375 884.617188 0.0664062 884.347656 Z M 153.851562 556.28125 C 153.605469 555.988281 119.46875 496.957031 77.996094 425.101562 C 36.527344 353.242188 2.015625 293.472656 1.3125 292.273438 L 0.0273438 290.101562 L 153.898438 290.101562 C 253.148438 290.101562 307.828125 290.203125 307.945312 290.390625 C 308.113281 290.664062 296.820312 310.632812 295.851562 311.773438 C 295.429688 312.273438 288.9375 312.300781 167.34375 312.300781 C 60.097656 312.300781 39.257812 312.367188 39.125 312.707031 C 39.039062 312.929688 67.6875 362.84375 102.785156 423.628906 C 137.882812 484.417969 166.65625 534.433594 166.726562 534.777344 C 166.808594 535.199219 164.863281 538.855469 160.800781 545.878906 C 157.472656 551.636719 154.652344 556.453125 154.527344 556.582031 C 154.40625 556.710938 154.101562 556.574219 153.851562 556.28125 Z M 865.867188 554.808594 C 856.734375 539.097656 854.660156 535.347656 854.773438 534.78125 C 854.84375 534.433594 883.617188 484.417969 918.714844 423.628906 C 953.8125 362.84375 982.460938 312.929688 982.375 312.707031 C 982.242188 312.367188 961.445312 312.300781 854.15625 312.300781 C 732.5625 312.300781 726.070312 312.273438 725.648438 311.773438 C 724.679688 310.632812 713.386719 290.664062 713.554688 290.390625 C 713.671875 290.203125 768.351562 290.101562 867.601562 290.101562 L 1021.46875 290.101562 L 1020.1875 292.273438 C 1019.480469 293.472656 984.976562 353.242188 943.507812 425.101562 C 902.039062 496.957031 867.875 556 867.585938 556.308594 C 867.085938 556.847656 867.023438 556.792969 865.867188 554.808594 Z M 865.867188 554.808594 "/>
<path style=" stroke:none;fill-rule:nonzero;fill:rgb(47.843137%,50.980395%,57.647061%);fill-opacity:1;" d="M 436.125 1044.785156 C 395.246094 973.949219 361.800781 915.835938 361.800781 915.644531 C 361.800781 915.390625 364.988281 915.300781 373.964844 915.300781 L 386.125 915.300781 L 387.1875 917.023438 C 387.773438 917.972656 415.679688 966.269531 449.203125 1024.351562 C 497.90625 1108.722656 510.277344 1129.949219 510.75 1129.949219 C 511.222656 1129.949219 523.59375 1108.722656 572.296875 1024.351562 C 605.820312 966.269531 633.726562 917.972656 634.3125 917.023438 L 635.375 915.300781 L 647.535156 915.300781 C 656.511719 915.300781 659.699219 915.390625 659.699219 915.644531 C 659.699219 916.210938 511.078125 1173.578125 510.75 1173.578125 C 510.585938 1173.578125 477.003906 1115.621094 436.125 1044.785156 Z M 0.0664062 884.347656 C 0.410156 883.3125 510.496094 0.0273438 510.75 0.0273438 C 511.003906 0.0273438 1021.089844 883.3125 1021.433594 884.347656 C 1021.523438 884.617188 901.410156 884.699219 510.75 884.699219 C 120.089844 884.699219 -0.0234375 884.617188 0.0664062 884.347656 Z M 77.640625 423.8125 C 35.617188 351.007812 1.144531 291.207031 1.035156 290.921875 C 0.847656 290.425781 8.804688 290.398438 154.167969 290.398438 C 259.183594 290.398438 307.5 290.496094 307.5 290.710938 C 307.5 290.878906 304.777344 295.738281 301.453125 301.507812 L 295.402344 312 L 167.085938 312 C 56.371094 312 38.742188 312.058594 38.601562 312.425781 C 38.507812 312.667969 66.390625 361.273438 102.46875 423.765625 C 137.6875 484.769531 166.5 534.8125 166.5 534.972656 C 166.5 535.375 154.457031 556.203125 154.230469 556.195312 C 154.132812 556.191406 119.667969 496.617188 77.640625 423.8125 Z M 861.046875 545.734375 C 857.71875 539.976562 855 535.136719 855 534.972656 C 855 534.8125 883.8125 484.769531 919.03125 423.765625 C 955.070312 361.339844 982.992188 312.667969 982.898438 312.425781 C 982.757812 312.058594 965.082031 312 854.414062 312 L 726.09375 312 L 720.046875 301.507812 C 716.722656 295.738281 714 290.878906 714 290.710938 C 714 290.496094 762.316406 290.398438 867.332031 290.398438 C 1012.277344 290.398438 1020.652344 290.429688 1020.464844 290.917969 C 1020.109375 291.851562 867.453125 556.1875 867.269531 556.195312 C 867.171875 556.199219 864.371094 551.488281 861.046875 545.734375 Z M 861.046875 545.734375 "/>
<path style=" stroke:none;fill-rule:nonzero;fill:rgb(40.784314%,44.705883%,51.764709%);fill-opacity:1;" d="M 436.125 1044.785156 C 395.246094 973.949219 361.800781 915.835938 361.800781 915.644531 C 361.800781 915.390625 364.988281 915.300781 373.964844 915.300781 L 386.125 915.300781 L 387.1875 917.023438 C 387.773438 917.972656 415.679688 966.269531 449.203125 1024.351562 C 497.90625 1108.722656 510.277344 1129.949219 510.75 1129.949219 C 511.222656 1129.949219 523.59375 1108.722656 572.296875 1024.351562 C 605.820312 966.269531 633.726562 917.972656 634.3125 917.023438 L 635.375 915.300781 L 647.535156 915.300781 C 656.511719 915.300781 659.699219 915.390625 659.699219 915.644531 C 659.699219 916.210938 511.078125 1173.578125 510.75 1173.578125 C 510.585938 1173.578125 477.003906 1115.621094 436.125 1044.785156 Z M 0 884.539062 C 0 884.449219 0.859375 882.933594 1.914062 881.164062 C 7.019531 872.582031 510.300781 0.574219 510.300781 0.308594 C 510.300781 0.136719 510.503906 0 510.75 0 C 510.996094 0 511.199219 0.136719 511.199219 0.308594 C 511.199219 0.574219 1014.480469 872.582031 1019.585938 881.164062 C 1020.640625 882.933594 1021.5 884.449219 1021.5 884.539062 C 1021.5 884.628906 791.664062 884.699219 510.75 884.699219 C 229.835938 884.699219 0 884.628906 0 884.539062 Z M 77.640625 423.8125 C 35.617188 351.007812 1.144531 291.207031 1.035156 290.921875 C 0.847656 290.425781 8.804688 290.398438 154.167969 290.398438 C 259.183594 290.398438 307.5 290.496094 307.5 290.710938 C 307.5 290.878906 304.777344 295.738281 301.453125 301.507812 L 295.402344 312 L 167.085938 312 C 56.371094 312 38.742188 312.058594 38.601562 312.425781 C 38.507812 312.667969 66.390625 361.273438 102.46875 423.765625 C 137.6875 484.769531 166.5 534.8125 166.5 534.972656 C 166.5 535.375 154.457031 556.203125 154.230469 556.195312 C 154.132812 556.191406 119.667969 496.617188 77.640625 423.8125 Z M 861.046875 545.734375 C 857.71875 539.976562 855 535.136719 855 534.972656 C 855 534.8125 883.8125 484.769531 919.03125 423.765625 C 955.070312 361.339844 982.992188 312.667969 982.898438 312.425781 C 982.757812 312.058594 965.082031 312 854.414062 312 L 726.09375 312 L 720.046875 301.507812 C 716.722656 295.738281 714 290.878906 714 290.710938 C 714 290.496094 762.316406 290.398438 867.332031 290.398438 C 1012.277344 290.398438 1020.652344 290.429688 1020.464844 290.917969 C 1020.109375 291.851562 867.453125 556.1875 867.269531 556.195312 C 867.171875 556.199219 864.371094 551.488281 861.046875 545.734375 Z M 861.046875 545.734375 "/>
<path style=" stroke:none;fill-rule:nonzero;fill:rgb(89.019608%,13.725491%,11.764706%);fill-opacity:1;" d="M 436.125 1044.785156 C 395.246094 973.949219 361.800781 915.835938 361.800781 915.644531 C 361.800781 915.390625 364.988281 915.300781 373.964844 915.300781 L 386.125 915.300781 L 387.1875 917.023438 C 387.773438 917.972656 415.679688 966.269531 449.203125 1024.351562 C 497.90625 1108.722656 510.277344 1129.949219 510.75 1129.949219 C 511.222656 1129.949219 523.59375 1108.722656 572.296875 1024.351562 C 605.820312 966.269531 633.726562 917.972656 634.3125 917.023438 L 635.375 915.300781 L 647.535156 915.300781 C 656.511719 915.300781 659.699219 915.390625 659.699219 915.644531 C 659.699219 916.210938 511.078125 1173.578125 510.75 1173.578125 C 510.585938 1173.578125 477.003906 1115.621094 436.125 1044.785156 Z M 0.148438 884.152344 C 0.230469 883.929688 0.300781 883.6875 0.300781 883.609375 C 0.300781 883.527344 0.402344 883.527344 0.527344 883.605469 C 0.839844 883.796875 510.472656 0.964844 510.363281 0.429688 C 510.3125 0.191406 510.488281 0 510.75 0 C 511.011719 0 511.1875 0.191406 511.136719 0.429688 C 511.035156 0.929688 1020.652344 883.804688 1020.941406 883.625 C 1021.089844 883.53125 1021.5 884.171875 1021.5 884.5 C 1021.5 884.527344 791.660156 884.550781 510.746094 884.550781 C 85.539062 884.550781 0.0195312 884.484375 0.148438 884.148438 Z M 77.640625 423.8125 C 35.617188 351.007812 1.144531 291.207031 1.035156 290.921875 C 0.847656 290.425781 8.804688 290.398438 154.167969 290.398438 C 259.183594 290.398438 307.5 290.496094 307.5 290.710938 C 307.5 290.878906 304.777344 295.738281 301.453125 301.507812 L 295.402344 312 L 167.085938 312 C 56.371094 312 38.742188 312.058594 38.601562 312.425781 C 38.507812 312.667969 66.390625 361.273438 102.46875 423.765625 C 137.6875 484.769531 166.5 534.8125 166.5 534.972656 C 166.5 535.375 154.457031 556.203125 154.230469 556.195312 C 154.132812 556.191406 119.667969 496.617188 77.640625 423.8125 Z M 861.046875 545.734375 C 857.71875 539.976562 855 535.136719 855 534.972656 C 855 534.8125 883.8125 484.769531 919.03125 423.765625 C 955.070312 361.339844 982.992188 312.667969 982.898438 312.425781 C 982.757812 312.058594 965.082031 312 854.414062 312 L 726.09375 312 L 720.046875 301.507812 C 716.722656 295.738281 714 290.878906 714 290.710938 C 714 290.496094 762.316406 290.398438 867.332031 290.398438 C 1012.277344 290.398438 1020.652344 290.429688 1020.464844 290.917969 C 1020.109375 291.851562 867.453125 556.1875 867.269531 556.195312 C 867.171875 556.199219 864.371094 551.488281 861.046875 545.734375 Z M 861.046875 545.734375 "/>
<path style=" stroke:none;fill-rule:nonzero;fill:rgb(9.411765%,14.901961%,26.274511%);fill-opacity:1;" d="M 0.148438 884.152344 C 0.230469 883.929688 0.300781 883.6875 0.300781 883.609375 C 0.300781 883.527344 0.402344 883.527344 0.527344 883.605469 C 0.839844 883.796875 510.472656 0.964844 510.363281 0.429688 C 510.3125 0.191406 510.488281 0 510.75 0 C 511.011719 0 511.1875 0.191406 511.136719 0.429688 C 511.035156 0.929688 1020.652344 883.804688 1020.941406 883.625 C 1021.089844 883.53125 1021.5 884.171875 1021.5 884.5 C 1021.5 884.527344 791.660156 884.550781 510.746094 884.550781 C 85.539062 884.550781 0.0195312 884.484375 0.148438 884.148438 Z M 0.148438 884.152344 "/>
</g>
</svg>
