<?xml version="1.0" encoding="UTF-8" standalone="no"?>
<!-- Created with Inkscape (http://www.inkscape.org/) -->

<svg
   xmlns:dc="http://purl.org/dc/elements/1.1/"
   xmlns:cc="http://creativecommons.org/ns#"
   xmlns:rdf="http://www.w3.org/1999/02/22-rdf-syntax-ns#"
   xmlns:svg="http://www.w3.org/2000/svg"
   xmlns="http://www.w3.org/2000/svg"
   xmlns:sodipodi="http://sodipodi.sourceforge.net/DTD/sodipodi-0.dtd"
   xmlns:inkscape="http://www.inkscape.org/namespaces/inkscape"
   width="289.68292mm"
   height="333.85471mm"
   viewBox="0 0 289.68292 333.8547"
   version="1.1"
   id="svg8"
   sodipodi:docname="gdklogo.svg"
   inkscape:version="0.92.3 (2405546, 2018-03-11)">
  <defs
     id="defs2" />
  <sodipodi:namedview
     id="base"
     pagecolor="#ffffff"
     bordercolor="#666666"
     borderopacity="1.0"
     inkscape:pageopacity="0.0"
     inkscape:pageshadow="2"
     inkscape:zoom="0.35"
     inkscape:cx="-478.40647"
     inkscape:cy="503.68933"
     inkscape:document-units="mm"
     inkscape:current-layer="layer1"
     showgrid="false"
     inkscape:window-width="1920"
     inkscape:window-height="1017"
     inkscape:window-x="1672"
     inkscape:window-y="363"
     inkscape:window-maximized="1"
     fit-margin-top="0"
     fit-margin-left="0"
     fit-margin-right="0"
     fit-margin-bottom="0" />
  <metadata
     id="metadata5">
    <rdf:RDF>
      <cc:Work
         rdf:about="">
        <dc:format>image/svg+xml</dc:format>
        <dc:type
           rdf:resource="http://purl.org/dc/dcmitype/StillImage" />
        <dc:title></dc:title>
      </cc:Work>
    </rdf:RDF>
  </metadata>
  <g
     inkscape:label="Ebene 1"
     inkscape:groupmode="layer"
     id="layer1"
     transform="translate(-44.18715,18.605713)">
    <g
       id="g832"
       transform="translate(388.65953,35.379948)">
      <path
         style="fill:#f3a3a1;stroke-width:0.08466667"
         d="m -200.47046,277.42382 c -0.2654,-0.30298 -42.14792,-72.94318 -42.14792,-73.10051 0,-0.15753 0.10303,-0.16149 3.65288,-0.14004 l 3.65287,0.0221 17.4503,30.21928 c 9.59766,16.6206 17.48839,30.22227 17.53496,30.22594 0.0466,0.004 7.93735,-13.59501 17.53508,-30.21928 l 17.45041,-30.22594 3.65276,-0.0221 c 3.54972,-0.0214 3.65275,-0.0175 3.65275,0.14004 0,0.17086 -41.90865,72.84019 -42.1573,73.10051 -0.1386,0.14509 -0.14969,0.14509 -0.27679,0 z m -143.89507,-81.71198 c -0.0833,-0.0529 -0.0833,-0.12616 0,-0.35696 0.1263,-0.3499 143.67949,-249.036307 143.8585,-249.215313 0.15639,-0.156387 0.20292,-0.156387 0.35931,0 0.17901,0.179006 143.732203,248.865413 143.858501,249.215313 0.08331,0.2308 0.08331,0.30404 0,0.35696 -0.137067,0.0871 -287.939241,0.0871 -288.076311,0 z m 21.94882,-129.430595 c -11.7348,-20.32513 -21.49783,-37.266953 -21.69562,-37.648485 -0.26798,-0.516924 -0.3327,-0.710787 -0.254,-0.760763 0.0581,-0.03689 19.62354,-0.06765 43.47878,-0.06836 38.28402,-0.0011 43.37881,0.01346 43.42141,0.124447 0.0282,0.07351 -0.68724,1.401138 -1.7224,3.19617 l -1.77065,3.07042 -36.16154,0.04233 c -19.88885,0.02328 -36.18023,0.06138 -36.20308,0.08467 -0.0229,0.02328 8.08807,14.120283 18.02426,31.326666 9.93619,17.206383 18.04643,31.339069 18.02275,31.405973 -0.0237,0.0669 -0.83148,1.486128 -1.79511,3.153827 -1.10051,1.90461 -1.79978,3.0314 -1.88042,3.03005 -0.0811,-0.001 -7.99102,-13.62054 -21.46438,-36.956942 z m 220.83387,33.926895 c -0.96362,-1.667702 -1.77143,-3.086927 -1.79512,-3.15383 -0.0237,-0.0669 8.086455,-14.19959 18.022554,-31.405973 9.9361,-17.206383 18.047023,-31.303383 18.024281,-31.326666 -0.02275,-0.02328 -16.314048,-0.06138 -36.202895,-0.08467 l -36.16154,-0.04233 -1.77065,-3.07042 c -1.03516,-1.795032 -1.75061,-3.122657 -1.7224,-3.19617 0.0426,-0.11099 5.13739,-0.125591 43.421413,-0.124447 23.855241,6.77e-4 43.420692,0.03148 43.478774,0.06836 0.07871,0.04998 0.01398,0.243821 -0.254,0.760678 -0.197782,0.381487 -9.960814,17.323338 -21.695614,37.648553 -13.477783,23.344141 -21.383288,36.955705 -21.464381,36.957025 -0.08061,0.001 -0.780282,-1.12613 -1.880422,-3.03011 z"
         id="path846"
         inkscape:connector-curvature="0" />
      <path
         style="fill:#a1a7b2;stroke-width:0.08466667"
         d="m -221.43782,240.97074 c -12.46018,-21.5868 -21.07931,-36.60418 -21.03448,-36.64901 0.0431,-0.0431 1.59231,-0.0664 3.58246,-0.0538 l 3.50649,0.0221 17.48566,30.28912 c 9.61711,16.65902 17.52375,30.28916 17.57032,30.2892 0.0466,4e-5 7.95315,-13.63006 17.5702,-30.28912 l 17.48553,-30.2892 3.50661,-0.0221 c 1.98993,-0.0126 3.53947,0.0107 3.58256,0.0538 0.0448,0.0448 -8.54447,15.00978 -20.95729,36.51345 -11.56829,20.04063 -21.06798,36.49851 -21.11043,36.57307 -0.0588,0.10319 -5.1193,-8.59971 -21.18763,-36.43749 z m -122.92771,-45.2589 c -0.0833,-0.0529 -0.0833,-0.12616 0,-0.35696 0.1263,-0.3499 143.67949,-249.036307 143.8585,-249.215313 0.15639,-0.156387 0.20292,-0.156387 0.35931,0 0.17901,0.179006 143.732203,248.865413 143.858501,249.215313 0.08331,0.2308 0.08331,0.30404 0,0.35696 -0.137067,0.0871 -287.939241,0.0871 -288.076311,0 z m 43.3139,-92.70234 c -0.0703,-0.0826 -9.70394,-16.742714 -21.40811,-37.022497 -11.70418,-20.279783 -21.44323,-37.148557 -21.64234,-37.486166 l -0.36203,-0.613833 h 43.42487 c 28.01088,0 43.44291,0.0292 43.47571,0.08226 0.0476,0.07704 -3.13936,5.712803 -3.41269,6.034909 -0.11938,0.140682 -1.95113,0.148166 -36.26794,0.148166 -30.26717,0 -36.14933,0.01858 -36.18607,0.114326 -0.0241,0.06287 8.06046,14.150348 17.96576,31.305499 9.90529,17.155143 18.0258,31.271057 18.04558,31.368695 0.0241,0.119109 -0.52591,1.149942 -1.67155,3.132661 -0.93912,1.62533 -1.73583,2.98462 -1.77045,3.02065 -0.0346,0.036 -0.12046,-0.002 -0.19074,-0.0847 z m 200.94677,-0.41581 c -2.57767,-4.434379 -3.16357,-5.492018 -3.13118,-5.6523 0.0198,-0.09793 8.140352,-14.214043 18.045709,-31.369152 9.905357,-17.1551 17.989991,-31.242575 17.965844,-31.305499 -0.03678,-0.09584 -5.906423,-0.114402 -36.186103,-0.114402 -34.31681,0 -36.14855,-0.0075 -36.26793,-0.148166 -0.27334,-0.322106 -3.46031,-5.957865 -3.4127,-6.034909 0.0328,-0.05306 15.46484,-0.08226 43.475712,-0.08226 h 43.424866 l -0.362052,0.613833 c -0.199127,0.337609 -9.937597,17.206383 -21.641046,37.486166 -11.703448,20.279783 -21.345229,36.943289 -21.426188,37.030019 -0.141875,0.152 -0.159376,0.13673 -0.484932,-0.42333 z"
         id="path844"
         inkscape:connector-curvature="0" />
      <path
         style="fill:#ea615d;stroke-width:0.08466667"
         d="m -221.43782,240.97074 c -12.46018,-21.5868 -21.07931,-36.60418 -21.03448,-36.64901 0.0431,-0.0431 1.59231,-0.0664 3.58246,-0.0538 l 3.50649,0.0221 17.48566,30.28912 c 9.61711,16.65902 17.52375,30.28916 17.57032,30.2892 0.0466,4e-5 7.95315,-13.63006 17.5702,-30.28912 l 17.48553,-30.2892 3.50661,-0.0221 c 1.98993,-0.0126 3.53947,0.0107 3.58256,0.0538 0.0448,0.0448 -8.54447,15.00978 -20.95729,36.51345 -11.56829,20.04063 -21.06798,36.49851 -21.11043,36.57307 -0.0588,0.10319 -5.1193,-8.59971 -21.18763,-36.43749 z M -344.45338,195.597 c 0.0972,-0.2917 144.05478,-249.575027 144.12601,-249.575027 0.0712,0 144.02877,249.283327 144.126001,249.575027 0.02532,0.076 -33.872798,0.0993 -144.126001,0.0993 -110.25321,0 -144.15133,-0.0234 -144.12601,-0.0993 z m 43.40175,-92.5875 c -0.0703,-0.0826 -9.70394,-16.742714 -21.40811,-37.022497 -11.70418,-20.279783 -21.44323,-37.148557 -21.64234,-37.486166 l -0.36203,-0.613833 h 43.42487 c 28.01088,0 43.44291,0.0292 43.47571,0.08226 0.0476,0.07704 -3.13936,5.712803 -3.41269,6.034909 -0.11938,0.140682 -1.95113,0.148166 -36.26794,0.148166 -30.26717,0 -36.14933,0.01858 -36.18607,0.114326 -0.0241,0.06287 8.06046,14.150348 17.96576,31.305499 9.90529,17.155143 18.0258,31.271057 18.04558,31.368695 0.0241,0.119109 -0.52591,1.149942 -1.67155,3.132661 -0.93912,1.62533 -1.73583,2.98462 -1.77045,3.02065 -0.0346,0.036 -0.12046,-0.002 -0.19074,-0.0847 z m 200.94677,-0.41581 c -2.57767,-4.434379 -3.16357,-5.492018 -3.13118,-5.6523 0.0198,-0.09793 8.140352,-14.214043 18.045709,-31.369152 9.905357,-17.1551 17.989991,-31.242575 17.965844,-31.305499 -0.03678,-0.09584 -5.906423,-0.114402 -36.186103,-0.114402 -34.31681,0 -36.14855,-0.0075 -36.26793,-0.148166 -0.27334,-0.322106 -3.46031,-5.957865 -3.4127,-6.034909 0.0328,-0.05306 15.46484,-0.08226 43.475712,-0.08226 h 43.424866 l -0.362052,0.613833 c -0.199127,0.337609 -9.937597,17.206383 -21.641046,37.486166 -11.703448,20.279783 -21.345229,36.943289 -21.426188,37.030019 -0.141875,0.152 -0.159376,0.13673 -0.484932,-0.42333 z"
         id="path842"
         inkscape:connector-curvature="0" />
      <path
         style="fill:#7a8293;stroke-width:0.08466667"
         d="m -221.38821,240.87547 c -11.53689,-19.99151 -20.97617,-36.39206 -20.97617,-36.44566 0,-0.0719 0.90001,-0.0975 3.43266,-0.0975 h 3.43266 l 0.29994,0.48684 c 0.16496,0.26776 8.04099,13.89803 17.50227,30.2895 13.74426,23.81162 17.23594,29.80266 17.36953,29.80266 0.13358,0 3.62524,-5.99101 17.36945,-29.80266 9.46124,-16.39147 17.33723,-30.02174 17.50222,-30.2895 l 0.29996,-0.48684 h 3.43266 c 2.53265,0 3.43266,0.0256 3.43266,0.0975 0,0.15959 -41.94485,72.79385 -42.037,72.79385 -0.0466,0 -9.52395,-16.35668 -21.06084,-36.34819 z M -344.45338,195.597 c 0.0972,-0.2917 144.05478,-249.575027 144.12601,-249.575027 0.0712,0 144.02877,249.283327 144.126001,249.575027 0.02532,0.076 -33.872798,0.0993 -144.126001,0.0993 -110.25321,0 -144.15133,-0.0234 -144.12601,-0.0993 z m 21.89344,-129.973005 c -11.86014,-20.547304 -21.58924,-37.42479 -21.62023,-37.505528 -0.0534,-0.139166 2.19299,-0.146796 43.2174,-0.146796 29.63811,0 43.27373,0.02748 43.27373,0.08722 0,0.04797 -0.76807,1.419573 -1.70683,3.048001 l -1.70684,2.960777 h -36.21477 c -31.24616,0 -36.22113,0.01654 -36.26103,0.120514 -0.026,0.0679 7.84255,13.785139 18.02494,31.42267 9.93916,17.216187 18.07119,31.339442 18.07119,31.385001 0,0.112717 -3.39902,5.990946 -3.46288,5.988676 -0.0279,-0.001 -9.75454,-16.813241 -21.61468,-37.360537 z m 221.09362,34.408515 c -0.93833,-1.6246 -1.70605,-2.991112 -1.70605,-3.036688 0,-0.04558 8.132012,-14.168873 18.071151,-31.385103 10.171151,-17.618125 18.050942,-31.35486 18.024941,-31.422636 -0.03985,-0.103843 -5.028523,-0.120412 -36.260992,-0.120412 h -36.21477 l -1.70684,-2.960777 c -0.93876,-1.628428 -1.70683,-3.000028 -1.70683,-3.048001 0,-0.05974 13.63562,-0.08722 43.273731,-0.08722 40.906922,0 43.270663,0.008 43.217788,0.145767 -0.101066,0.263368 -43.183261,74.86544 -43.235297,74.86719 -0.02794,9.4e-4 -0.818512,-1.32751 -1.756832,-2.95212 z"
         id="path840"
         inkscape:connector-curvature="0" />
      <path
         style="fill:#687284;stroke-width:0.08466667"
         d="m -221.38821,240.87547 c -11.53689,-19.99151 -20.97617,-36.39206 -20.97617,-36.44566 0,-0.0719 0.90001,-0.0975 3.43266,-0.0975 h 3.43266 l 0.29994,0.48684 c 0.16496,0.26776 8.04099,13.89803 17.50227,30.2895 13.74426,23.81162 17.23594,29.80266 17.36953,29.80266 0.13358,0 3.62524,-5.99101 17.36945,-29.80266 9.46124,-16.39147 17.33723,-30.02174 17.50222,-30.2895 l 0.29996,-0.48684 h 3.43266 c 2.53265,0 3.43266,0.0256 3.43266,0.0975 0,0.15959 -41.94485,72.79385 -42.037,72.79385 -0.0466,0 -9.52395,-16.35668 -21.06084,-36.34819 z m -123.08417,-45.2245 c 0,-0.0249 0.24292,-0.45358 0.53981,-0.9525 1.44156,-2.42248 143.47819,-248.522069 143.47819,-248.597299 0,-0.04776 0.0571,-0.08683 0.12701,-0.08683 0.0699,0 0.127,0.03907 0.127,0.08683 0,0.07523 142.036631,246.174819 143.478191,248.597299 0.296892,0.49892 0.539809,0.92755 0.539809,0.9525 0,0.0249 -64.86525,0.0454 -144.145,0.0454 -79.27976,0 -144.14501,-0.0204 -144.14501,-0.0454 z m 21.91244,-130.026975 c -11.86014,-20.547304 -21.58924,-37.42479 -21.62023,-37.505528 -0.0534,-0.139166 2.19299,-0.146796 43.2174,-0.146796 29.63811,0 43.27373,0.02748 43.27373,0.08722 0,0.04797 -0.76807,1.419573 -1.70683,3.048001 l -1.70684,2.960777 h -36.21477 c -31.24616,0 -36.22113,0.01654 -36.26103,0.120514 -0.026,0.0679 7.84255,13.785139 18.02494,31.42267 9.93916,17.216187 18.07119,31.339442 18.07119,31.385001 0,0.112717 -3.39902,5.990946 -3.46288,5.988676 -0.0279,-0.001 -9.75454,-16.813241 -21.61468,-37.360537 z m 221.09362,34.408515 c -0.93833,-1.6246 -1.70605,-2.991112 -1.70605,-3.036688 0,-0.04558 8.132012,-14.168873 18.071151,-31.385103 10.171151,-17.618125 18.050942,-31.35486 18.024941,-31.422636 -0.03985,-0.103843 -5.028523,-0.120412 -36.260992,-0.120412 h -36.21477 l -1.70684,-2.960777 c -0.93876,-1.628428 -1.70683,-3.000028 -1.70683,-3.048001 0,-0.05974 13.63562,-0.08722 43.273731,-0.08722 40.906922,0 43.270663,0.008 43.217788,0.145767 -0.101066,0.263368 -43.183261,74.86544 -43.235297,74.86719 -0.02794,9.4e-4 -0.818512,-1.32751 -1.756832,-2.95212 z"
         id="path838"
         inkscape:connector-curvature="0" />
      <path
         style="fill:#e3231e;stroke-width:0.08466667"
         d="m -221.38821,240.87547 c -11.53689,-19.99151 -20.97617,-36.39206 -20.97617,-36.44566 0,-0.0719 0.90001,-0.0975 3.43266,-0.0975 h 3.43266 l 0.29994,0.48684 c 0.16496,0.26776 8.04099,13.89803 17.50227,30.2895 13.74426,23.81162 17.23594,29.80266 17.36953,29.80266 0.13358,0 3.62524,-5.99101 17.36945,-29.80266 9.46124,-16.39147 17.33723,-30.02174 17.50222,-30.2895 l 0.29996,-0.48684 h 3.43266 c 2.53265,0 3.43266,0.0256 3.43266,0.0975 0,0.15959 -41.94485,72.79385 -42.037,72.79385 -0.0466,0 -9.52395,-16.35668 -21.06084,-36.34819 z m -123.04277,-45.33423 c 0.0238,-0.062 0.0433,-0.13094 0.0433,-0.15316 0,-0.0222 0.0289,-0.0225 0.0643,-8.5e-4 0.0877,0.0544 143.91775,-249.100054 143.8865,-249.251965 -0.0137,-0.06651 0.0356,-0.120926 0.10955,-0.120926 0.0739,0 0.12322,0.05442 0.10954,0.120926 -0.0292,0.141863 143.79576,249.308225 143.877624,249.257635 0.04225,-0.0261 0.157836,0.15467 0.157836,0.24686 0,0.008 -64.86568,0.0142 -144.14594,0.0142 -120.00318,0 -144.13869,-0.0189 -144.10267,-0.11276 z m 21.87104,-129.917245 c -11.86014,-20.547304 -21.58924,-37.42479 -21.62023,-37.505528 -0.0534,-0.139166 2.19299,-0.146796 43.2174,-0.146796 29.63811,0 43.27373,0.02748 43.27373,0.08722 0,0.04797 -0.76807,1.419573 -1.70683,3.048001 l -1.70684,2.960777 h -36.21477 c -31.24616,0 -36.22113,0.01654 -36.26103,0.120514 -0.026,0.0679 7.84255,13.785139 18.02494,31.42267 9.93916,17.216187 18.07119,31.339442 18.07119,31.385001 0,0.112717 -3.39902,5.990946 -3.46288,5.988676 -0.0279,-0.001 -9.75454,-16.813241 -21.61468,-37.360537 z m 221.09362,34.408515 c -0.93833,-1.6246 -1.70605,-2.991112 -1.70605,-3.036688 0,-0.04558 8.132012,-14.168873 18.071151,-31.385103 10.171151,-17.618125 18.050942,-31.35486 18.024941,-31.422636 -0.03985,-0.103843 -5.028523,-0.120412 -36.260992,-0.120412 h -36.21477 l -1.70684,-2.960777 c -0.93876,-1.628428 -1.70683,-3.000028 -1.70683,-3.048001 0,-0.05974 13.63562,-0.08722 43.273731,-0.08722 40.906922,0 43.270663,0.008 43.217788,0.145767 -0.101066,0.263368 -43.183261,74.86544 -43.235297,74.86719 -0.02794,9.4e-4 -0.818512,-1.32751 -1.756832,-2.95212 z"
         id="path836"
         inkscape:connector-curvature="0" />
      <path
         style="fill:#182643;stroke-width:0.08466667"
         d="m -344.43098,195.54124 c 0.0238,-0.062 0.0433,-0.13094 0.0433,-0.15316 0,-0.0222 0.0289,-0.0225 0.0643,-8.5e-4 0.0877,0.0544 143.91775,-249.100054 143.8865,-249.251965 -0.0137,-0.06651 0.0356,-0.120926 0.10955,-0.120926 0.0739,0 0.12322,0.05442 0.10954,0.120926 -0.0292,0.141863 143.79576,249.308225 143.877624,249.257635 0.04225,-0.0261 0.157836,0.15467 0.157836,0.24686 0,0.008 -64.86568,0.0142 -144.14594,0.0142 -120.00318,0 -144.13869,-0.0189 -144.10267,-0.11276 z"
         id="path834"
         inkscape:connector-curvature="0" />
    </g>
    <path
       style="fill:#192744;fill-opacity:0;stroke-width:0.08466667"
       d="m 168.8252,279.06997 c -11.49857,-19.91562 -21.01228,-36.39389 -21.14156,-36.61836 l -0.23506,-0.40814 3.61216,0.0221 3.61217,0.0221 17.49353,30.30154 c 9.62144,16.66586 17.5315,30.3028 17.5779,30.30433 0.0464,0.002 0.64255,-0.96592 1.32476,-2.14988 7.5986,-13.18708 33.71083,-58.38675 33.75883,-58.43576 0.0347,-0.0354 1.66553,-0.0545 3.62404,-0.0423 l 3.56093,0.0221 -7.0635,12.23433 c -3.88492,6.72888 -9.65931,16.73013 -12.83196,22.225 -3.17265,5.49486 -9.49327,16.44367 -14.04582,24.33067 -4.55255,7.887 -8.29144,14.35408 -8.30865,14.37128 -0.0172,0.0172 -9.4392,-16.26332 -20.93777,-36.17894 z M 45.618034,233.39463 c 0.0972,-0.2917 144.054786,-249.575036 144.126006,-249.575036 0.0712,0 144.02877,249.283336 144.12601,249.575036 0.0253,0.076 -33.8728,0.0993 -144.12601,0.0993 -110.253206,0 -144.151326,-0.0234 -144.126006,-0.0993 z m 38.50025,-101.05417 c -2.76301,-4.78583 -6.91554,-11.9781 -9.22785,-15.98283 -23.44802,-40.610118 -29.21174,-50.611554 -29.18328,-50.640015 0.0182,-0.01823 19.58518,-0.02359 43.48209,-0.0119 l 43.448916,0.02125 -1.79175,3.1115 -1.79177,3.1115 H 92.778784 c -33.38776,0 -36.27168,0.01091 -36.22329,0.137008 0.0426,0.110981 35.50977,61.595187 36.04103,62.479007 l 0.15569,0.25902 -1.78251,3.08532 c -0.98039,1.69693 -1.7927,3.09574 -1.80515,3.10848 -0.0124,0.0127 -2.28327,-3.89251 -5.04627,-8.67833 z m 204.436386,5.63318 c -0.97268,-1.68339 -1.76772,-3.1018 -1.76674,-3.15202 9.3e-4,-0.0502 8.12216,-14.15542 18.04708,-31.34488 9.92492,-17.189464 18.0689,-31.315039 18.09773,-31.390172 0.0482,-0.125569 -2.87897,-0.13661 -36.22344,-0.13661 h -36.27586 l -1.79177,-3.1115 -1.79176,-3.1115 43.44893,-0.02125 c 23.89692,-0.01169 43.46401,-0.0062 43.48245,0.01227 0.0294,0.02945 -2.13114,3.786823 -12.93117,22.487979 -6.94958,12.033783 -14.66341,25.397743 -22.13836,38.354003 -4.55379,7.89305 -8.30413,14.37876 -8.33409,14.41269 -0.03,0.0339 -0.85031,-1.31562 -1.823,-2.99901 z"
       id="path828"
       inkscape:connector-curvature="0" />
  </g>
</svg>
